<svg width="24" height="24" viewBox="0 0 24 24" xmlns="http://www.w3.org/2000/svg">
    <path d="M5.009 6.124c.008.23.03.456.047.684.041.543.115 1.082.227 1.614a13.282 13.282 0 0 0 4.178 7.218 13.28 13.28 0 0 0 6.75 3.203c.662.107 1.329.15 1.998.164.049 0 .067-.013.078-.062.229-.994.459-1.987.69-2.98.011-.05.003-.078-.051-.102a938.11 938.11 0 0 1-3.212-1.38c-.06-.025-.089-.015-.128.033-.203.254-.41.506-.616.758-.382.467-.763.933-1.143 1.401-.035.043-.061.054-.111.025-.082-.046-.169-.083-.253-.124-1.047-.52-2.05-1.106-2.94-1.872a11.27 11.27 0 0 1-2.106-2.412 18.48 18.48 0 0 1-1.097-1.978c-.036-.075-.021-.107.037-.154.713-.58 1.423-1.163 2.137-1.743.05-.041.05-.07.027-.127-.456-1.063-.91-2.127-1.36-3.193-.035-.084-.075-.085-.148-.068a351.664 351.664 0 0 1-2.933.679c-.058.012-.077.036-.073.097.007.106.002.213.002.32zM4 5.684c.027-.127.034-.257.09-.378a.96.96 0 0 1 .682-.554c1.043-.244 2.085-.487 3.128-.725.483-.11.938.126 1.138.589.478 1.11.954 2.222 1.427 3.335.196.461.073.904-.321 1.223-.527.427-1.051.858-1.578 1.285-.037.03-.044.052-.02.097.435.856.961 1.648 1.598 2.369a11.019 11.019 0 0 0 3.3 2.537c.052.026.075.008.105-.029.33-.406.66-.812.993-1.216.131-.16.257-.325.402-.472.282-.285.63-.382 1.002-.235.627.247 1.242.523 1.862.788.52.222 1.038.446 1.557.669.273.117.47.307.577.587.04.107.032.222.058.33v.055c-.016.076-.032.153-.05.23-.215.946-.43 1.893-.647 2.84-.053.234-.1.47-.272.656-.188.203-.41.328-.693.333-.667.012-1.33-.033-1.991-.125a14.22 14.22 0 0 1-8.641-4.564 14.27 14.27 0 0 1-2.317-3.452 14.057 14.057 0 0 1-1.175-3.705 13.265 13.265 0 0 1-.198-1.94c-.003-.127.005-.256-.016-.382v-.147z" fill="#000" fill-rule="evenodd"/>
</svg>
