<svg width="24" height="24" viewBox="0 0 24 24" xmlns="http://www.w3.org/2000/svg">
    <path d="M15.975 14.26c1.178.768 1.838 1.878 2.002 3.275.059.497.019.997.026 1.496.003.239.012.478-.04.714-.165.75-.812 1.253-1.622 1.254h-5.839c-1.945 0-3.891.002-5.838 0-.694-.001-1.2-.32-1.515-.937-.114-.225-.145-.468-.145-.716.002-.539-.016-1.079.01-1.616a4.275 4.275 0 0 1 .926-2.467c.732-.94 1.694-1.5 2.867-1.7a3.632 3.632 0 0 1 1.845.176c.718.254 1.46.34 2.219.298a5.668 5.668 0 0 0 1.523-.307c1.287-.438 2.478-.19 3.581.53zm-3.117.448c-.64.219-1.295.372-1.976.403a7.23 7.23 0 0 1-1.416-.066 8.425 8.425 0 0 1-1.371-.35c-.433-.143-.868-.128-1.303-.032a3.367 3.367 0 0 0-1.877 1.111 3.327 3.327 0 0 0-.824 2.009c-.032.505-.002 1.012-.019 1.518-.012.358.229.627.622.625l2.908-.006 2.908.002h2.918l2.919-.001c.354 0 .576-.223.577-.575 0-.46.006-.918-.001-1.378a3.358 3.358 0 0 0-.445-1.646 3.342 3.342 0 0 0-1.9-1.558c-.566-.187-1.138-.254-1.72-.056zM18.48 3c.206.117.38.27.54.449.759.848 1.293 1.817 1.56 2.925.074.305.132.613.19.921l.088.462v.666c-.068.418-.115.84-.209 1.252a6.913 6.913 0 0 1-1.742 3.262c-.325.345-.638.392-.907.148-.264-.24-.231-.545.096-.906 2.154-2.381 2.158-5.72.01-8.082-.374-.41-.386-.633-.006-1.008L18.194 3h.286zm-7.986.893c2.374.002 4.298 1.908 4.297 4.269a4.284 4.284 0 0 1-4.293 4.286 4.273 4.273 0 0 1-4.285-4.27 4.27 4.27 0 0 1 4.28-4.285zM10.48 4.97a3.2 3.2 0 0 0-3.182 3.19 3.202 3.202 0 0 0 3.284 3.205c1.702-.036 3.121-1.43 3.125-3.177a3.188 3.188 0 0 0-3.227-3.218zm6.022.723c.633.701.927 1.53.938 2.36-.006 1.015-.313 1.807-.916 2.484-.308.345-.646.41-.902.16-.306-.299-.196-.581.047-.873.902-1.08.899-2.319-.013-3.4-.254-.303-.322-.604-.018-.873.314-.28.611-.137.864.142z" fill="#000" fill-rule="evenodd"/>
</svg>
