<svg width="24" height="24" viewBox="0 0 24 24" xmlns="http://www.w3.org/2000/svg">
    <path d="M19.995 15.994V8.111c0-.025.014-.06-.01-.076-.027-.017-.049.015-.07.03l-3.84 2.447c-.051.032-.073.066-.072.129.001.904.001 1.808-.002 2.712 0 .073.023.113.084.152 1.299.825 2.596 1.652 3.91 2.49M9.498 16.998h4.412c.173 0 .347.002.52-.005.344-.013.569-.25.569-.59V11.7c0-1.379-.001-2.758.001-4.137 0-.229-.108-.379-.303-.478a.793.793 0 0 0-.363-.078c-.773-.002-1.546 0-2.32 0H6.991c-.776 0-1.552-.005-2.328.001-.343.003-.664.159-.66.655.014 1.888.005 3.775.005 5.662 0 1.035.003 2.07 0 3.106-.001.244.112.4.322.503a.828.828 0 0 0 .374.065h4.794m6.505-7.638.535-.341c.954-.609 1.908-1.218 2.863-1.825.395-.252.797-.27 1.187.002.29.202.413.494.41.85-.004 1.004-.001 2.009-.001 3.014 0 1.634-.006 3.27.003 4.904a.997.997 0 0 1-.821 1.022.949.949 0 0 1-.694-.122c-.958-.609-1.914-1.219-2.87-1.829l-.594-.376c-.029.034-.016.069-.016.1-.001.55-.014 1.102.002 1.653.023.807-.545 1.405-1.262 1.552-.122.025-.245.04-.37.04-2.144-.002-4.287-.002-6.43-.002-1.108 0-2.217.006-3.325-.001-.589-.004-1.066-.244-1.397-.742A1.39 1.39 0 0 1 3 16.473L3 7.53c0-.814.643-1.417 1.398-1.513.218-.027.438-.015.657-.015l9.279-.001c.477 0 .898.146 1.24.486.276.276.427.61.428 1.005.003.584 0 1.169 0 1.753v.115" fill="#000" fill-rule="evenodd"/>
</svg>
